<?xml version="1.0" standalone="no"?>
<!DOCTYPE svg PUBLIC "-//W3C//DTD SVG 20010904//EN"
 "http://www.w3.org/TR/2001/REC-SVG-20010904/DTD/svg10.dtd">
<svg version="1.0" xmlns="http://www.w3.org/2000/svg"
 width="512.000000pt" height="512.000000pt" viewBox="0 0 512.000000 512.000000"
 preserveAspectRatio="xMidYMid meet">

<g transform="translate(0.000000,512.000000) scale(0.100000,-0.100000)"
fill="#000000" stroke="none">
<path d="M1200 4598 c-175 -18 -379 -84 -525 -170 -372 -219 -613 -587 -664
-1013 -38 -314 37 -688 209 -1052 323 -681 1051 -1409 2004 -2003 202 -126
207 -127 359 -35 788 477 1471 1095 1856 1679 210 319 325 590 393 926 30 154
33 467 5 600 -115 537 -519 939 -1058 1051 -136 28 -357 30 -472 5 -312 -69
-630 -269 -819 -517 -29 -38 -55 -69 -58 -69 -3 0 -20 23 -39 51 -19 28 -72
88 -119 135 -236 236 -513 377 -812 414 -95 11 -139 11 -260 -2z m280 -259
c149 -23 328 -102 465 -205 151 -111 305 -299 354 -431 12 -33 33 -71 46 -83
44 -41 123 -43 168 -3 11 10 35 51 54 92 105 229 294 417 538 537 147 71 232
94 380 101 137 6 260 -11 384 -54 461 -158 766 -613 736 -1098 -20 -325 -120
-622 -321 -955 -337 -560 -985 -1166 -1771 -1658 l-82 -51 -116 74 c-524 335
-960 692 -1298 1063 -501 548 -757 1084 -757 1585 0 429 225 796 605 984 192
96 420 134 615 102z"/>
</g>
</svg>
